
<svg width="163" height="23" viewBox="0 0 163 23" fill="none" xmlns="http://www.w3.org/2000/svg">
<g clip-path="url(#clip0)">
<path d="M0 1.72518C0 0.563324 0.565604 0 1.73216 0H3.78248C4.94904 0 5.51464 0.563324 5.51464 1.72518V8.62589H7.77706L11.7363 1.23227C12.1958 0.422493 12.8675 0 13.7866 0H15.9076C16.6146 0 17.0742 0.176039 17.2863 0.563324C17.5337 0.950608 17.463 1.44352 17.1449 2.04205L12.2312 10.7031V10.7736L17.4984 20.3149C17.8165 20.9134 17.8872 21.4063 17.6398 21.7936C17.3923 22.1809 16.9328 22.3569 16.2611 22.3569H13.8573C12.9735 22.3569 12.2665 21.9344 11.807 21.1246L7.7417 13.3085H5.47929V20.6669C5.47929 21.8288 4.91368 22.3921 3.74713 22.3921H1.73216C0.565604 22.3921 0 21.8288 0 20.6669V1.72518Z" fill="#1DBD92"/>
<path d="M19.655 1.72518C19.655 0.563324 20.2206 0 21.3871 0H23.3667C24.498 0 25.0989 0.563324 25.0989 1.72518V16.1603C25.0989 16.7589 25.205 17.1814 25.3817 17.3926C25.5585 17.6039 25.7706 17.7095 26.018 17.7799C26.4069 17.8151 26.6897 17.9559 26.9371 18.2024C27.1846 18.4488 27.2906 18.8009 27.2906 19.2586V20.7726C27.2906 21.3007 27.1492 21.7584 26.8664 22.04C26.5836 22.3569 26.1594 22.4977 25.5231 22.4977C24.8161 22.4977 24.1445 22.4273 23.4374 22.3217C22.7304 22.1809 22.0941 21.9344 21.5639 21.4767C20.9983 21.0542 20.5741 20.4205 20.2206 19.6459C19.8671 18.8361 19.6903 17.7799 19.6903 16.4068V1.72518H19.655Z" fill="#1DBD92"/>
<path d="M28.3155 14.2941C28.3155 13.097 28.4922 12.0056 28.8811 10.9846C29.2699 9.96354 29.8356 9.08335 30.5426 8.30878C31.2496 7.53421 32.1333 6.97089 33.1938 6.51318C34.2543 6.09069 35.4209 5.84424 36.6935 5.84424C37.8954 5.84424 38.9559 6.05548 39.875 6.44277C40.7941 6.83005 41.6072 7.39338 42.2435 8.06232C42.8798 8.76648 43.3747 9.57626 43.6929 10.4917C44.011 11.4423 44.1878 12.4281 44.1878 13.5195C44.1878 13.942 44.011 14.3293 43.6929 14.7166C43.3747 15.1039 42.9152 15.2799 42.3849 15.2799H33.8655C34.0776 16.2657 34.5371 17.0051 35.2441 17.4628C35.9512 17.9205 36.7642 18.1317 37.648 18.1317C38.1782 18.1317 38.7085 18.0613 39.2034 17.9205C39.6983 17.7797 40.1578 17.6036 40.582 17.3924C41.1123 17.1459 41.5719 17.0755 41.9254 17.1811C42.3142 17.2515 42.6324 17.5684 42.9152 18.0613L43.3394 18.8711C43.5868 19.364 43.6575 19.7865 43.5868 20.209C43.5161 20.6315 43.2333 20.9483 42.7384 21.23C42.1375 21.5821 41.3951 21.899 40.476 22.2158C39.5569 22.5327 38.461 22.6735 37.1884 22.6735C35.7391 22.6735 34.4664 22.4271 33.3706 21.9694C32.2747 21.4765 31.3203 20.8427 30.5779 20.0682C29.8356 19.2936 29.2699 18.3782 28.8811 17.3572C28.5276 16.4066 28.3155 15.3503 28.3155 14.2941ZM38.8499 12.252C38.8499 11.5831 38.6378 11.0198 38.2489 10.5621C37.8601 10.1044 37.2945 9.85792 36.6228 9.85792C35.8098 9.85792 35.2441 10.1044 34.8199 10.5621C34.4311 11.055 34.1483 11.6183 34.0069 12.252H38.8499Z" fill="#1DBD92"/>
<path d="M46.4504 7.99215C46.4504 6.8303 47.016 6.26697 48.1825 6.26697H50.1622C51.3287 6.26697 51.8943 6.8303 51.8943 7.99215V20.6669C51.8943 21.8288 51.3287 22.3921 50.1622 22.3921H48.1825C47.016 22.3921 46.4504 21.8288 46.4504 20.6669V7.99215ZM48.2179 4.22493C47.0513 4.22493 46.4857 3.6616 46.4857 2.49975V1.72518C46.4857 0.563324 47.0513 0 48.2179 0H50.0561C51.2227 0 51.7883 0.563324 51.7883 1.72518V2.49975C51.7883 3.6616 51.2227 4.22493 50.0561 4.22493H48.2179Z" fill="#1DBD92"/>
<path d="M55.0757 7.99186C55.0757 6.83 55.6413 6.26668 56.8078 6.26668H58.5754C59.7066 6.26668 60.2722 6.83 60.2722 7.99186V8.27352C60.2722 8.30873 60.2722 8.34393 60.2722 8.41435C60.2722 8.44956 60.2722 8.48477 60.2722 8.55518V8.69601H60.3429C60.5196 8.37914 60.7671 8.06227 61.0499 7.7102C61.3327 7.39333 61.6862 7.07646 62.1104 6.83C62.5346 6.58355 63.0295 6.33709 63.5597 6.16106C64.1253 5.98502 64.7616 5.87939 65.4687 5.87939C66.2817 5.87939 67.0594 5.98502 67.7664 6.19626C68.4734 6.40751 69.0744 6.75959 69.6046 7.21729C70.1349 7.67499 70.5237 8.30873 70.8419 9.0833C71.16 9.85787 71.3014 10.8085 71.3014 11.9351V20.6666C71.3014 21.8285 70.7358 22.3918 69.5693 22.3918H67.5897C66.4231 22.3918 65.8575 21.8285 65.8575 20.6666V12.9209C65.8575 12.1816 65.7161 11.6183 65.4333 11.3014C65.1505 10.9845 64.691 10.8085 64.09 10.8085C63.489 10.8085 62.9588 10.9141 62.5346 11.1606C62.1104 11.407 61.7215 11.6887 61.4387 12.1112C61.1559 12.4984 60.9438 12.9561 60.8024 13.4843C60.661 14.0124 60.5903 14.5405 60.5903 15.1038V20.6666C60.5903 21.8285 60.0247 22.3918 58.8582 22.3918H56.8785C55.712 22.3918 55.1464 21.8285 55.1464 20.6666V7.99186H55.0757Z" fill="#1DBD92"/>
<path d="M74.5185 1.72518C74.5185 0.563324 75.0841 0 76.2507 0H82.7905C83.9217 0 84.9468 0.140831 85.8659 0.387285C86.7851 0.633739 87.5981 1.02102 88.2698 1.51393C88.9414 2.00684 89.4717 2.60537 89.8252 3.34473C90.214 4.0841 90.3908 4.92908 90.3908 5.87969C90.3908 6.8303 90.1787 7.71049 89.7191 8.59068C89.2949 9.47088 88.6233 10.1398 87.7749 10.6327V10.7031C88.4112 10.8792 88.9768 11.1608 89.401 11.5481C89.8252 11.9002 90.214 12.3227 90.4968 12.7804C90.7796 13.2381 90.9917 13.731 91.0978 14.2239C91.2392 14.752 91.2745 15.2449 91.2745 15.7379C91.2745 16.9701 91.0271 17.9911 90.5675 18.8361C90.108 19.6811 89.4717 20.3501 88.694 20.8782C87.9163 21.4063 86.9972 21.7936 85.972 22.0048C84.9468 22.2513 83.851 22.3569 82.7551 22.3569H76.2153C75.0488 22.3569 74.4832 21.7936 74.4832 20.6317V1.72518H74.5185ZM82.8258 8.6611C83.5328 8.6611 84.0277 8.44985 84.3459 8.02736C84.664 7.60487 84.8054 7.14717 84.8054 6.58384C84.8054 6.05573 84.6287 5.59803 84.3105 5.24595C83.9924 4.85866 83.4621 4.68263 82.7198 4.68263H79.9978V8.6611H82.8258ZM83.3207 17.6743C84.0984 17.6743 84.6994 17.4278 85.1236 16.9701C85.5124 16.5124 85.7245 15.9491 85.7245 15.3154C85.7245 14.6816 85.5478 14.1535 85.1589 13.6958C84.7701 13.2381 84.1691 13.0269 83.3914 13.0269H80.0685V17.6391H83.3207V17.6743Z" fill="#1DBD92"/>
<path d="M93.3956 7.99227C93.3956 6.83041 93.9612 6.26709 95.1277 6.26709H97.1074C98.2739 6.26709 98.8395 6.83041 98.8395 7.99227V15.7028C98.8395 16.4421 98.9809 17.0054 99.2637 17.3223C99.5465 17.6392 99.9707 17.8152 100.536 17.8152C101.137 17.8152 101.632 17.7096 102.056 17.4631C102.481 17.2167 102.834 16.8998 103.117 16.4773C103.4 16.0548 103.612 15.5971 103.753 15.069C103.895 14.5409 103.965 13.9776 103.965 13.379V7.99227C103.965 6.83041 104.531 6.26709 105.697 6.26709H107.677C108.844 6.26709 109.409 6.83041 109.409 7.99227V20.667C109.409 21.8289 108.844 22.3922 107.677 22.3922H105.91C104.778 22.3922 104.213 21.8289 104.213 20.667V20.3854V20.1389C104.213 20.0685 104.213 20.0333 104.248 19.9981H104.177C103.753 20.8783 103.046 21.5472 102.127 22.0401C101.208 22.5331 100.218 22.7795 99.1223 22.7795C98.3093 22.7795 97.5669 22.6739 96.8599 22.4626C96.1529 22.2514 95.5519 21.8993 95.0217 21.4416C94.4914 20.9839 94.1026 20.3502 93.7844 19.5756C93.5016 18.801 93.3602 17.8504 93.3602 16.7238V7.99227H93.3956Z" fill="#1DBD92"/>
<path d="M112.591 21.2652C112.096 20.9835 111.848 20.6666 111.778 20.2441C111.742 19.8217 111.848 19.364 112.131 18.9063L112.591 18.2021C112.909 17.7444 113.227 17.4979 113.616 17.4275C113.969 17.3571 114.429 17.4627 114.994 17.7092C115.383 17.8852 115.843 18.0613 116.338 18.2725C116.833 18.4838 117.398 18.5542 118.07 18.5542C118.6 18.5542 118.989 18.4486 119.201 18.2725C119.413 18.0965 119.519 17.8852 119.519 17.6388C119.519 17.3219 119.343 17.0755 118.954 16.8994C118.565 16.7234 118.105 16.5121 117.54 16.3361C116.974 16.1601 116.373 15.9488 115.701 15.7376C115.03 15.5263 114.429 15.2094 113.863 14.8222C113.298 14.4349 112.838 13.942 112.449 13.3082C112.06 12.7097 111.884 11.8999 111.884 10.9845C111.884 10.1395 112.06 9.40017 112.414 8.76643C112.767 8.13269 113.227 7.60457 113.828 7.18208C114.429 6.75959 115.136 6.44272 115.949 6.19626C116.762 5.98502 117.646 5.87939 118.6 5.87939C119.625 5.87939 120.509 5.98502 121.287 6.23147C122.064 6.47793 122.701 6.68917 123.196 6.93563C123.691 7.18208 123.973 7.49895 124.044 7.92144C124.115 8.34394 124.044 8.80164 123.832 9.25934L123.443 9.9987C123.196 10.4916 122.913 10.8085 122.524 10.9141C122.135 11.0197 121.676 10.9493 121.145 10.7733C120.757 10.6324 120.332 10.4916 119.873 10.3508C119.413 10.2099 118.918 10.1395 118.353 10.1395C117.752 10.1395 117.363 10.2099 117.186 10.386C117.009 10.562 116.903 10.7381 116.903 10.9845C116.903 11.3014 117.08 11.5478 117.469 11.7239C117.858 11.8999 118.317 12.076 118.883 12.252C119.449 12.428 120.05 12.6393 120.721 12.8153C121.393 13.0266 121.994 13.3082 122.559 13.6955C123.125 14.0828 123.585 14.5757 123.973 15.1742C124.362 15.7728 124.539 16.5473 124.539 17.4627C124.539 18.2021 124.398 18.9063 124.079 19.5752C123.761 20.2089 123.337 20.7723 122.771 21.2652C122.206 21.7229 121.499 22.1102 120.65 22.3918C119.837 22.6735 118.883 22.8143 117.858 22.8143C116.656 22.8143 115.595 22.6383 114.676 22.3214C113.899 21.9341 113.156 21.6173 112.591 21.2652Z" fill="#1DBD92"/>
<path d="M127.049 21.2652C126.554 20.9835 126.306 20.6666 126.236 20.2441C126.2 19.8217 126.306 19.364 126.589 18.9063L127.049 18.2021C127.367 17.7444 127.685 17.4979 128.074 17.4275C128.427 17.3571 128.887 17.4627 129.452 17.7092C129.841 17.8852 130.301 18.0613 130.796 18.2725C131.291 18.4838 131.856 18.5542 132.528 18.5542C133.058 18.5542 133.447 18.4486 133.659 18.2725C133.871 18.0965 133.977 17.8852 133.977 17.6388C133.977 17.3219 133.801 17.0755 133.412 16.8994C133.023 16.7234 132.563 16.5121 131.998 16.3361C131.432 16.1601 130.831 15.9488 130.159 15.7376C129.488 15.5263 128.887 15.2094 128.321 14.8222C127.756 14.4349 127.296 13.942 126.907 13.3082C126.518 12.7097 126.342 11.8999 126.342 10.9845C126.342 10.1395 126.518 9.40017 126.872 8.76643C127.225 8.13269 127.685 7.60457 128.286 7.18208C128.887 6.75959 129.594 6.44272 130.407 6.19626C131.22 5.98502 132.104 5.87939 133.058 5.87939C134.083 5.87939 134.967 5.98502 135.745 6.23147C136.522 6.47793 137.159 6.68917 137.654 6.93563C138.149 7.18208 138.431 7.49895 138.502 7.92144C138.573 8.34394 138.502 8.80164 138.29 9.25934L137.901 9.9987C137.654 10.4916 137.371 10.8085 136.982 10.9141C136.593 11.0197 136.134 10.9493 135.603 10.7733C135.215 10.6324 134.79 10.4916 134.331 10.3508C133.871 10.2099 133.376 10.1395 132.811 10.1395C132.21 10.1395 131.821 10.2099 131.644 10.386C131.467 10.562 131.361 10.7381 131.361 10.9845C131.361 11.3014 131.538 11.5478 131.927 11.7239C132.316 11.8999 132.775 12.076 133.341 12.252C133.907 12.428 134.508 12.6393 135.179 12.8153C135.851 13.0266 136.452 13.3082 137.017 13.6955C137.583 14.0828 138.043 14.5757 138.431 15.1742C138.82 15.7728 138.997 16.5473 138.997 17.4627C138.997 18.2021 138.856 18.9063 138.537 19.5752C138.219 20.2089 137.795 20.7723 137.23 21.2652C136.664 21.7229 135.957 22.1102 135.108 22.3918C134.295 22.6735 133.341 22.8143 132.316 22.8143C131.114 22.8143 130.053 22.6383 129.134 22.3214C128.357 21.9341 127.614 21.6173 127.049 21.2652Z" fill="#1DBD92"/>
<path d="M140.588 14.2941C140.588 13.097 140.765 12.0056 141.154 10.9846C141.543 9.96354 142.108 9.08335 142.815 8.30878C143.522 7.53421 144.406 6.97089 145.466 6.51318C146.527 6.09069 147.694 5.84424 148.966 5.84424C150.168 5.84424 151.229 6.05548 152.148 6.44277C153.067 6.83005 153.88 7.39338 154.516 8.06232C155.152 8.76648 155.647 9.57626 155.965 10.4917C156.284 11.4423 156.46 12.4281 156.46 13.5195C156.46 13.942 156.284 14.3293 155.965 14.7166C155.647 15.1039 155.188 15.2799 154.658 15.2799H146.138C146.35 16.2657 146.81 17.0051 147.517 17.4628C148.224 17.9205 149.037 18.1317 149.921 18.1317C150.451 18.1317 150.981 18.0613 151.476 17.9205C151.971 17.7797 152.43 17.6036 152.855 17.3924C153.385 17.1459 153.844 17.0755 154.198 17.1811C154.587 17.2515 154.905 17.5684 155.188 18.0613L155.612 18.8711C155.859 19.364 155.93 19.7865 155.859 20.209C155.789 20.6315 155.506 20.9483 155.011 21.23C154.41 21.5821 153.668 21.899 152.749 22.2158C151.83 22.5327 150.734 22.6735 149.461 22.6735C148.012 22.6735 146.739 22.4271 145.643 21.9694C144.547 21.4765 143.593 20.8427 142.851 20.0682C142.108 19.2936 141.543 18.3782 141.154 17.3572C140.765 16.4066 140.588 15.3503 140.588 14.2941ZM151.087 12.252C151.087 11.5831 150.875 11.0198 150.486 10.5621C150.097 10.1044 149.532 9.85792 148.86 9.85792C148.047 9.85792 147.481 10.1044 147.057 10.5621C146.668 11.055 146.386 11.6183 146.244 12.252H151.087Z" fill="#1DBD92"/>
<path d="M159.288 6.68927C159.288 6.54844 159.359 6.47803 159.5 6.47803H160.243C160.384 6.47803 160.49 6.47803 160.561 6.47803C160.632 6.47803 160.702 6.51324 160.773 6.51324C160.914 6.58365 161.056 6.65407 161.127 6.7949C161.233 6.93573 161.268 7.11177 161.268 7.28781C161.268 7.35822 161.268 7.42864 161.233 7.49905C161.233 7.56947 161.197 7.63988 161.162 7.7103C161.127 7.78071 161.091 7.85113 161.02 7.88634C160.985 7.95675 160.914 7.99196 160.844 8.02717C160.844 8.02717 160.844 8.06237 160.879 8.06237L160.914 8.09758C160.914 8.13279 160.95 8.13279 160.95 8.168L161.339 8.87215C161.374 8.94257 161.374 9.01298 161.374 9.04819C161.339 9.0834 161.303 9.11861 161.197 9.11861H160.914C160.808 9.11861 160.738 9.0834 160.667 8.97778L160.278 8.20321H159.96V8.90736C159.96 9.04819 159.889 9.11861 159.748 9.11861H159.5C159.359 9.11861 159.288 9.04819 159.288 8.90736V6.68927ZM160.243 7.7103C160.349 7.7103 160.42 7.67509 160.49 7.63988C160.561 7.56947 160.596 7.49905 160.596 7.39343C160.596 7.32301 160.596 7.2526 160.561 7.21739C160.526 7.18218 160.49 7.14697 160.42 7.11177C160.349 7.07656 160.278 7.07656 160.172 7.07656H159.96V7.74551H160.243V7.7103Z" fill="#1DBD92"/>
<path d="M160.278 10.527C158.793 10.527 157.556 9.2947 157.556 7.81598C157.556 6.33725 158.793 5.10498 160.278 5.10498C161.763 5.10498 163 6.33725 163 7.81598C163 9.2947 161.763 10.527 160.278 10.527ZM160.278 5.59789C159.041 5.59789 158.051 6.58371 158.051 7.81598C158.051 9.04825 159.041 10.0341 160.278 10.0341C161.515 10.0341 162.505 9.04825 162.505 7.81598C162.505 6.58371 161.515 5.59789 160.278 5.59789Z" fill="#1DBD92"/>
</g>
<defs>
<clipPath id="clip0">
<rect width="163" height="22.7442" fill="white"/>
</clipPath>
</defs>
</svg>
